Coordinates
version=1
nRows=20
nColumns=30
inDegrees=yes

Units are S.I. units (second, meters, Newtons, ...)
Angles are in degrees.

endheader
time	floatyaw	floatroll	floatpitch	floatx	floaty	floatz	pro_sup_l	deviation_l	flexion_l	cmc_flexion_l	cmc_abduction_l	mp_flexion_l	ip_flexion_l	2mcp_flexion_l	2mcp_abduction_l	2pm_flexion_l	2md_flexion_l	3mcp_flexion_l	3mcp_abduction_l	3pm_flexion_l	3md_flexion_l	4mcp_flexion_l	4mcp_abduction_l	4pm_flexion_l	4md_flexion_l	5mcp_flexion_l	5mcp_abduction_l	5pm_flexion_l	5md_flexion_l
0.005000	-1.782892	-2.032873	94.941017	0.167203	-0.279058	0.186400	118.498241	19.236018	25.696840	13.308192	36.658358	-14.730712	-32.141229	41.465961	10.378959	41.145835	44.505117	53.082760	6.914382	49.964430	60.718498	51.001053	-6.788688	72.274824	58.507200	24.980845	-12.646854	73.600428	57.710627
0.015000	-1.782892	-2.032873	94.941017	0.166633	-0.278097	0.185959	118.378163	19.044070	25.055842	14.520576	37.264013	-14.967987	-35.072026	41.723351	10.401738	41.371653	45.771623	52.982869	6.858774	51.061068	62.113665	50.710442	-6.817814	73.447462	59.819912	24.616696	-12.552193	74.385600	58.407522
0.025000	-1.782892	-2.032873	94.941017	0.165999	-0.277135	0.185482	118.249358	18.866917	24.402003	15.636573	37.855211	-15.087780	-37.894394	41.937154	10.428784	41.577307	46.996025	52.883225	6.815465	52.111307	63.372003	50.457907	-6.844497	74.585326	61.035017	24.293038	-12.464363	75.176882	59.053464
0.035000	-1.782892	-2.032873	94.941017	0.165335	-0.276241	0.184941	118.080237	18.679712	23.793139	16.604067	38.385487	-15.079050	-40.495528	42.105529	10.459173	41.727004	48.175430	52.794586	6.788801	53.068555	64.490520	50.259015	-6.867165	75.647663	62.140288	24.015955	-12.388834	75.936456	59.646147
0.045000	-1.782892	-2.032873	94.941017	0.164670	-0.275484	0.184326	117.851215	18.462288	23.280973	17.382712	38.825176	-14.948397	-42.762885	42.225750	10.489593	41.790721	49.303337	52.718153	6.780534	53.886144	65.483283	50.109806	-6.885321	76.590437	63.135095	23.772229	-12.329144	76.617837	60.187721
0.055000	-1.782892	-2.032873	94.941017	0.164026	-0.274913	0.183659	117.562784	18.206251	22.898744	17.948958	39.164311	-14.723158	-44.597821	42.295084	10.515081	41.756723	50.356810	52.648681	6.789509	54.527721	66.369187	49.992188	-6.899433	77.375046	64.022373	23.540097	-12.287213	77.176150	60.681029
0.065000	-1.782892	-2.032873	94.941017	0.163414	-0.274547	0.182987	117.236661	17.918045	22.653144	18.302253	39.410886	-14.447590	-45.937777	42.314580	10.530779	41.637171	51.293157	52.580232	6.811946	54.977671	67.162853	49.883581	-6.910503	77.978805	64.802808	23.301924	-12.263365	77.581116	61.126532
0.075000	-1.782892	-2.032873	94.941017	0.162840	-0.274370	0.182373	116.909212	17.616840	22.523974	18.468111	39.585385	-14.171284	-46.779554	42.293238	10.534075	41.464445	52.060702	52.511867	6.842227	55.246607	67.872890	49.767304	-6.919594	78.403562	65.474070	23.053283	-12.255911	77.828867	61.520249
0.085000	-1.782892	-2.032873	94.941017	0.162316	-0.274338	0.181876	116.619467	17.328185	22.472637	18.494115	39.713279	-13.933997	-47.189978	42.248771	10.525962	41.280389	52.619423	52.450257	6.874139	55.368778	68.505494	49.639750	-6.927456	78.677555	66.033698	22.804997	-12.260965	77.946453	61.853119
0.095000	-1.782892	-2.032873	94.941017	0.161858	-0.274390	0.181533	116.396554	17.076040	22.456851	18.438697	39.817739	-13.754715	-47.293243	42.202692	10.510758	41.124851	52.959237	52.407383	6.902342	55.393053	69.067078	49.511287	-6.934366	78.848005	66.481778	22.577780	-12.273348	77.985393	62.112412
0.105000	-1.782892	-2.032873	94.941017	0.161489	-0.274470	0.181349	116.251564	16.876145	22.445443	18.356855	39.914743	-13.630779	-47.236642	42.171462	10.494317	41.029246	53.104416	52.394179	6.923646	55.372174	69.562136	49.400379	-6.940249	78.967153	66.821523	22.392324	-12.288417	78.006224	62.285670
0.115000	-1.782892	-2.032873	94.941017	0.161230	-0.274538	0.181301	116.176613	16.732631	22.426232	18.288381	40.011535	-13.546187	-47.149201	42.159240	10.481705	41.014460	53.102875	52.413815	6.937543	55.353091	69.989831	49.323514	-6.945000	79.077848	67.059857	22.259568	-12.303453	78.059922	62.366890
0.125000	-1.782892	-2.032873	94.941017	0.161090	-0.274575	0.181344	116.150482	16.638397	22.403529	18.252376	40.107797	-13.482864	-47.111189	42.157788	10.475453	41.087492	53.009413	52.458810	6.945679	55.368379	70.345904	49.285777	-6.948751	79.203963	67.210711	22.175505	-12.317358	78.172391	62.363272
0.135000	-1.782892	-2.032873	94.941017	0.161054	-0.274583	0.181431	116.147787	16.578684	22.387919	18.248754	40.198106	-13.428626	-47.145400	42.153993	10.475034	41.235092	52.873188	52.513489	6.950592	55.429837	70.630753	49.276757	-6.951891	79.348154	67.299282	22.122468	-12.328977	78.337073	62.299098
0.145000	-1.782892	-2.032873	94.941017	0.161086	-0.274575	0.181522	116.147735	16.536501	22.385400	18.264845	40.274744	-13.379248	-47.229890	42.139626	10.477629	41.420628	52.732832	52.559977	6.954374	55.527783	70.856902	49.274091	-6.954837	79.496739	67.361643	22.076049	-12.335767	78.518902	62.212924
0.155000	-1.782892	-2.032873	94.941017	0.161137	-0.274564	0.181593	116.139312	16.497973	22.392411	18.283891	40.330745	-13.335548	-47.323400	42.116654	10.479742	41.591907	52.616159	52.584781	6.957946	55.637910	71.048889	49.253303	-6.957793	79.629137	67.436358	22.014703	-12.334261	78.669062	62.147079
0.165000	-1.782892	-2.032873	94.941017	0.161164	-0.274561	0.181637	116.121559	16.455680	22.398456	18.292363	40.363013	-13.298547	-47.391134	42.095409	10.478892	41.699711	52.540277	52.583531	6.961149	55.732853	71.235237	49.199218	-6.960688	79.727854	67.551627	21.927946	-12.322184	78.745035	62.133573
0.175000	-1.782892	-2.032873	94.941017	0.161143	-0.274571	0.181659	116.099733	16.408765	22.393018	18.284087	40.374475	-13.266294	-47.419940	42.087879	10.474607	41.717538	52.510711	52.562036	6.963402	55.793113	71.437860	49.112709	-6.963346	79.785549	67.715731	21.819155	-12.300519	78.727621	62.183607
0.185000	-1.782892	-2.032873	94.941017	0.161077	-0.274591	0.181671	116.079771	16.360153	22.371679	18.260691	40.373941	-13.234550	-47.418014	42.100737	10.468261	41.651277	52.520953	52.532680	6.964398	55.813652	71.664329	49.008812	-6.965745	79.807685	67.916138	21.701443	-12.273792	78.628164	62.285947
0.195000	-1.782892	-2.032873	94.941017	0.160986	-0.274614	0.181679	116.063938	16.312783	22.338071	18.229198	40.373352	-13.200512	-47.402914	42.131799	10.462009	41.534349	52.554143	52.507444	6.964466	55.805379	71.905109	48.907609	-6.968160	79.810877	68.126518	21.589314	-12.248205	78.483832	62.414005
